<svg height="512" viewBox="0 0 128 128" width="512" xmlns="http://www.w3.org/2000/svg"><g><path d="m103.81 43.81-30.09 1.94c4.03-5.9 7.78-13.59 7.78-21.75a17.5 17.5 0 0 0 -35 0c0 8.16 3.75 15.85 7.78 21.75l-30.09-1.94v12.89l33.29-1.95-2.98 66.75h19l-2.98-66.75 33.29 1.95zm-39.81 0c-4.16-5.32-8.5-12.71-8.5-19.81a8.5 8.5 0 0 1 17 0c0 7.1-4.34 14.49-8.5 19.81z" fill="#ffd203"/><path d="m67.056 113.457a1.748 1.748 0 0 1 -1.746-1.672l-.268-6a1.75 1.75 0 1 1 3.5-.156l.268 6a1.75 1.75 0 0 1 -1.67 1.826c-.031.002-.057.002-.084.002z" fill="#f09418"/></g></svg>