<svg height="512" viewBox="0 0 128 128" width="512" xmlns="http://www.w3.org/2000/svg"><g><path d="m64.12-1.53h6v124.817h-6z" fill="#0e8bce" transform="matrix(.707 .707 -.707 .707 62.707 -29.63)"/><path d="m113.629 30.987-4.638-11.978-11.971-4.646 24.48-7.863z" fill="#f7502f"/><path d="m30.594 97.402-12.839 4.124-11.255 11.255 6.279 2.437 2.433 6.282 11.255-11.255z" fill="#f7502f"/><path d="m57.878-1.528h6v124.817h-6z" fill="#3ba9fd" transform="matrix(.707 -.707 .707 .707 -25.218 60.879)"/><g fill="#f7502f"><path d="m30.987 14.371-11.978 4.638-4.646 11.971-7.863-24.48z"/><path d="m97.402 97.406 4.124 12.839 11.255 11.255 2.437-6.279 6.282-2.433-11.255-11.255z"/></g></g></svg>