<svg height="512" viewBox="0 0 128 128" width="512" xmlns="http://www.w3.org/2000/svg"><g><path d="m59.5 12.5h9v39.808h-9z" fill="#f09418"/><circle cx="64" cy="12.5" fill="#ffd203" r="6"/><path d="m94.641 86.737v-27.878a30.64 30.64 0 0 0 -30.641-30.641 30.64 30.64 0 0 0 -30.641 30.641v27.878a21.01 21.01 0 0 1 -4.584 13.1 21.013 21.013 0 0 0 -4.583 13.1v8.563h79.616v-8.563a21.013 21.013 0 0 0 -4.583-13.1 21.01 21.01 0 0 1 -4.584-13.1z" fill="#ffd203"/><g fill="#f09418"><path d="m88.642 60.609a1.749 1.749 0 0 1 -1.75-1.75 22.807 22.807 0 0 0 -1.21-7.349 1.75 1.75 0 1 1 3.318-1.127 26.294 26.294 0 0 1 1.4 8.476 1.75 1.75 0 0 1 -1.758 1.75z"/><path d="m24.192 112.5h79.615v9h-79.615z"/></g></g></svg>