<svg height="512" viewBox="0 0 128 128" width="512" xmlns="http://www.w3.org/2000/svg"><g><path d="m63.984 57.752a1.75 1.75 0 0 1 -1.75-1.752v-17.873a1.75 1.75 0 1 1 3.5 0v17.873a1.749 1.749 0 0 1 -1.75 1.752z" fill="#3ba9fd"/><path d="m51.984 48.148h24v69.727h-24z" fill="#3ba9fd"/><path d="m69.984 101.188a1.751 1.751 0 0 1 -1.75-1.75v-7a1.75 1.75 0 0 1 3.5 0v7a1.75 1.75 0 0 1 -1.75 1.75z" fill="#0e8bce"/><path d="m68.484 36.3a4.5 4.5 0 1 1 -9 0c0-4.92 4.5-11.23 4.5-11.23s4.5 6.307 4.5 11.23z" fill="#ffd203"/><path d="m54.984 70.148a3 3 0 0 0 3-3v-4.125a3 3 0 0 1 3-3 3 3 0 0 1 3 3v10.377a2.875 2.875 0 0 0 2.875 2.875 2.875 2.875 0 0 0 2.875-2.875v-4.25a3.125 3.125 0 0 1 3.125-3.125 3.125 3.125 0 0 0 3.125-3.125v-14.752h-24v19a3 3 0 0 0 3 3z" fill="#0e8bce"/><path d="m44.234 113.375h39.5a9 9 0 0 1 9 9 0 0 0 0 1 0 0h-57.5a0 0 0 0 1 0 0 9 9 0 0 1 9-9z" fill="#0e8bce"/><g fill="#ffd203"><path d="m103.792 48.9h-6a1.75 1.75 0 0 1 0-3.5h6a1.75 1.75 0 0 1 0 3.5z"/><path d="m93.259 32.008a1.75 1.75 0 0 1 -.877-3.266l5.2-3a1.75 1.75 0 1 1 1.75 3.031l-5.2 3a1.743 1.743 0 0 1 -.873.235z"/><path d="m80.881 19.645a1.751 1.751 0 0 1 -1.514-2.625l3-5.2a1.75 1.75 0 0 1 3.031 1.75l-3 5.2a1.749 1.749 0 0 1 -1.517.875z"/><path d="m63.984 15.125a1.751 1.751 0 0 1 -1.75-1.75v-6a1.75 1.75 0 1 1 3.5 0v6a1.75 1.75 0 0 1 -1.75 1.75z"/><path d="m47.093 19.661a1.749 1.749 0 0 1 -1.518-.876l-3-5.2a1.75 1.75 0 1 1 3.031-1.75l3 5.2a1.751 1.751 0 0 1 -1.513 2.626z"/><path d="m34.726 32.035a1.74 1.74 0 0 1 -.873-.235l-5.2-3a1.75 1.75 0 0 1 1.75-3.031l5.2 3a1.75 1.75 0 0 1 -.877 3.266z"/><path d="m30.208 48.933h-6a1.75 1.75 0 1 1 0-3.5h6a1.75 1.75 0 0 1 0 3.5z"/><path d="m29.549 68.827a1.75 1.75 0 0 1 -.877-3.266l5.2-3a1.75 1.75 0 1 1 1.75 3.031l-5.2 3a1.743 1.743 0 0 1 -.873.235z"/><path d="m98.467 68.8a1.74 1.74 0 0 1 -.873-.235l-5.2-3a1.75 1.75 0 0 1 1.75-3.031l5.2 3a1.751 1.751 0 0 1 -.877 3.266z"/></g></g></svg>