<svg height="512" viewBox="0 0 128 128" width="512" xmlns="http://www.w3.org/2000/svg"><g><path d="m24.823 76.086h16v38.182h-16z" fill="#0e8bce" transform="matrix(.707 .707 -.707 .707 76.914 4.667)"/><path d="m40.312 73.546 42.658-42.659a70.017 70.017 0 0 1 15.7-11.8l22.83-12.587-12.582 22.825a70.017 70.017 0 0 1 -11.805 15.705l-42.659 42.658z" fill="#ffd203"/><path d="m99.18 35.189a1.749 1.749 0 0 1 -1.409-2.789c1.22-1.66 2.373-3.4 3.424-5.182a1.75 1.75 0 0 1 3.013 1.782c-1.111 1.878-2.328 3.72-3.617 5.473a1.749 1.749 0 0 1 -1.411.716z" fill="#f09418"/><path d="m47.383 82.367a1.75 1.75 0 0 1 -1.237-2.987l34.89-34.891a1.75 1.75 0 0 1 2.475 2.475l-34.891 34.89a1.743 1.743 0 0 1 -1.237.513z" fill="#f09418"/><path d="m23.822 77.178h45a0 0 0 0 1 0 0 9 9 0 0 1 -9 9h-27a9 9 0 0 1 -9-9 0 0 0 0 1 0 0z" fill="#3ba9fd" transform="matrix(.707 .707 -.707 .707 71.322 -8.832)"/><circle cx="16.495" cy="111.505" fill="#3ba9fd" r="10"/><circle cx="16.495" cy="111.505" fill="#0e8bce" r="4"/><g fill="#ffd203"><path d="m46 97.186a1.745 1.745 0 0 1 -1.238-.513l-13.435-13.434a1.75 1.75 0 1 1 2.473-2.475l13.436 13.436a1.75 1.75 0 0 1 -1.236 2.986z"/><path d="m41.756 101.429a1.745 1.745 0 0 1 -1.237-.513l-13.435-13.435a1.75 1.75 0 0 1 2.475-2.475l13.435 13.435a1.751 1.751 0 0 1 -1.238 2.988z"/><path d="m37.514 105.671a1.748 1.748 0 0 1 -1.238-.512l-13.435-13.435a1.75 1.75 0 0 1 2.475-2.475l13.435 13.435a1.75 1.75 0 0 1 -1.237 2.987z"/><path d="m33.271 109.914a1.741 1.741 0 0 1 -1.237-.513l-13.434-13.435a1.749 1.749 0 1 1 2.474-2.474l13.435 13.435a1.75 1.75 0 0 1 -1.237 2.987z"/></g></g></svg>