<svg height="512" viewBox="0 0 128 128" width="512" xmlns="http://www.w3.org/2000/svg"><g><g fill="#ffd203"><path d="m21.904 32.261h9v63.478h-9z"/><path d="m97.096 32.261h9v63.478h-9z" transform="matrix(-1 0 0 -1 203.192 128)"/><path d="m59.5-5.335h9v63.478h-9z" transform="matrix(0 1 -1 0 90.404 -37.596)"/><path d="m59.5 69.857h9v63.478h-9z" transform="matrix(0 -1 1 0 -37.596 165.596)"/></g><circle cx="26.404" cy="26.404" fill="#b560e8" r="19.904"/><circle cx="26.404" cy="26.404" fill="#954acd" r="10.904"/><circle cx="101.596" cy="26.404" fill="#b560e8" r="19.904"/><circle cx="101.596" cy="26.404" fill="#954acd" r="10.904"/><circle cx="26.404" cy="101.596" fill="#b560e8" r="19.904"/><circle cx="26.404" cy="101.596" fill="#954acd" r="10.904"/><circle cx="101.596" cy="101.596" fill="#b560e8" r="19.904"/><circle cx="101.596" cy="101.596" fill="#954acd" r="10.904"/></g></svg>