<svg height="512" viewBox="0 0 128 128" width="512" xmlns="http://www.w3.org/2000/svg"><g><path d="m121.5 64-57.5 57.5-57.5-57.5h5.01a9.632 9.632 0 0 1 6.811 2.821l1.538 1.538a9.632 9.632 0 0 0 6.811 2.821 9.629 9.629 0 0 1 6.811 2.82l30.519 30.53 30.519-30.53a9.629 9.629 0 0 1 6.811-2.822 9.632 9.632 0 0 0 6.811-2.821l1.538-1.538a9.632 9.632 0 0 1 6.811-2.819z" fill="#f7502f"/><path d="m75.008 103.757a1.75 1.75 0 0 1 -1.237-2.987l3.75-3.75a1.75 1.75 0 1 1 2.479 2.48l-3.75 3.75a1.746 1.746 0 0 1 -1.242.507z" fill="#d93922"/><path d="m69.05 11.62-5.47-2.71-2.6-1.28-1.33 2.688-52.839 106.851a3 3 0 0 0 1.36 4.02 3 3 0 0 0 4.019-1.36l26.837-54.271a8 8 0 0 1 3.412-3.518 8.008 8.008 0 0 0 3.412-3.517z" fill="#ffd203"/><path d="m58.95 11.62 5.47-2.71 2.6-1.28 1.33 2.688 52.837 106.852a3 3 0 0 1 -1.36 4.02 3 3 0 0 1 -4.019-1.36l-26.835-54.272a8 8 0 0 0 -3.412-3.518 8.008 8.008 0 0 1 -3.412-3.517z" fill="#ffd203"/><circle cx="64" cy="18.5" fill="#f7502f" r="12"/><circle cx="64" cy="18.5" fill="#d93922" r="6"/></g></svg>