<svg height="512" viewBox="0 0 128 128" width="512" xmlns="http://www.w3.org/2000/svg"><g><path d="m112.69 47.21c-8 1.24-8.88 5.36-8.88 10.73v23.75a39.81 39.81 0 0 1 -79.62 0v-23.75c0-5.37-.88-9.49-8.88-10.73 1.44-2.44 4-8.46 12.81-8.46 8.74 0 11.95 5.79 12 12.36v-24.4a7.96 7.96 0 0 1 15.92 0v-12.25a7.96 7.96 0 1 1 15.92 0v12.25a7.96 7.96 0 1 1 15.92 0v24.41c.03-3.7 1.05-7.15 3.5-9.46 1.91-1.8 4.67-2.91 8.5-2.91 8.81 0 11.37 6.02 12.81 8.46z" fill="#bae543"/><g fill="#a5cc2a"><path d="m30.192 81.25a1.751 1.751 0 0 1 -1.75-1.75v-7.195a1.75 1.75 0 0 1 3.5 0v7.195a1.75 1.75 0 0 1 -1.75 1.75z"/><path d="m75.46 20.12v33.56a1.75 1.75 0 0 1 -3.5 0v-26.97a7.939 7.939 0 0 1 3.5-6.59z"/><path d="m91.38 41.66v20.58a1.75 1.75 0 1 1 -3.5 0v-11.12c.03-3.7 1.05-7.15 3.5-9.46z"/><path d="m52.54 20.12v33.56a1.75 1.75 0 0 0 3.5 0v-26.97a7.939 7.939 0 0 0 -3.5-6.59z"/><path d="m36.62 41.66v20.58a1.75 1.75 0 0 0 3.5 0v-11.12c-.03-3.7-1.05-7.15-3.5-9.46z"/></g><path d="m89.477 86.556s-11.406 14.25-25.477 14.25-25.477-14.25-25.477-14.25 11.406-14.25 25.477-14.25 25.477 14.25 25.477 14.25z" fill="#954acd"/><circle cx="64" cy="86.556" fill="#efeffb" r="6"/></g></svg>