<svg height="512" viewBox="0 0 128 128" width="512" xmlns="http://www.w3.org/2000/svg"><g><path d="m103.807 44.215a7.962 7.962 0 0 0 -15.923 0v-17.5a7.962 7.962 0 0 0 -15.923 0v-12.254a7.962 7.962 0 0 0 -15.923 0v12.25a7.961 7.961 0 0 0 -7.961-7.961 7.962 7.962 0 0 0 -7.962 7.961v14.5a7.962 7.962 0 1 0 -15.923 0v40.481a39.808 39.808 0 0 0 39.808 39.808 39.808 39.808 0 0 0 39.808-39.808v-37.477z" fill="#f4a86c"/><g fill="#d78759"><path d="m85.083 109.854a1.75 1.75 0 0 1 -1.094-3.117 32.35 32.35 0 0 0 5.834-6.07 1.75 1.75 0 1 1 2.819 2.075 35.811 35.811 0 0 1 -6.467 6.728 1.741 1.741 0 0 1 -1.092.384z"/><path d="m50.55 95.5a1.75 1.75 0 0 1 -1.75-1.75 22.275 22.275 0 0 1 22.25-22.25h6.867a1.75 1.75 0 0 1 0 3.5h-6.867a18.771 18.771 0 0 0 -18.75 18.75 1.75 1.75 0 0 1 -1.75 1.75z"/><path d="m75.46 20.12v33.56a1.75 1.75 0 0 1 -3.5 0v-26.97a7.939 7.939 0 0 1 3.5-6.59z"/><path d="m91.38 37.62v35.63a1.75 1.75 0 0 1 -3.5 0v-29.03a7.984 7.984 0 0 1 3.5-6.6z"/><path d="m52.54 20.12v33.56a1.75 1.75 0 0 0 3.5 0v-26.97a7.939 7.939 0 0 0 -3.5-6.59z"/><path d="m40.12 41.21v21.03a1.75 1.75 0 0 1 -3.5 0v-27.62a7.98 7.98 0 0 1 3.5 6.59z"/></g></g></svg>