<svg height="512" viewBox="0 0 128 128" width="512" xmlns="http://www.w3.org/2000/svg"><g><path d="m64 21.907-57.5 99.593h115z" fill="#f09418"/><path d="m22.088 112.5 41.912-72.593 41.912 72.593z" fill="#ffd203"/><path d="m69.366 62.948a1.747 1.747 0 0 1 -1.517-.875l-3.229-5.592a1.75 1.75 0 0 1 3.031-1.75l3.229 5.592a1.75 1.75 0 0 1 -1.514 2.625z" fill="#f09418"/><g fill="#ffd203"><path d="m75.281 15.983a1.75 1.75 0 0 1 -1.514-2.625l4.465-7.733a1.75 1.75 0 1 1 3.031 1.75l-4.463 7.733a1.747 1.747 0 0 1 -1.519.875z"/><path d="m80.521 23a1.75 1.75 0 0 1 -.886-3.26l12.641-7.4a1.749 1.749 0 1 1 1.768 3.019l-12.644 7.402a1.738 1.738 0 0 1 -.879.239z"/><path d="m83.991 31.566a1.749 1.749 0 0 1 -.435-3.444l8.644-2.228a1.749 1.749 0 1 1 .873 3.388l-8.648 2.229a1.741 1.741 0 0 1 -.434.055z"/><path d="m52.719 15.983a1.747 1.747 0 0 1 -1.517-.875l-4.465-7.733a1.75 1.75 0 1 1 3.031-1.75l4.465 7.733a1.75 1.75 0 0 1 -1.514 2.625z"/><path d="m47.479 23a1.738 1.738 0 0 1 -.882-.24l-12.641-7.4a1.749 1.749 0 1 1 1.768-3.019l12.641 7.4a1.75 1.75 0 0 1 -.886 3.259z"/><path d="m44.009 31.566a1.741 1.741 0 0 1 -.438-.055l-8.648-2.229a1.749 1.749 0 1 1 .873-3.388l8.648 2.228a1.749 1.749 0 0 1 -.435 3.444z"/></g><path d="m89.477 84.041s-11.406 14.25-25.477 14.25-25.477-14.25-25.477-14.25 11.406-14.25 25.477-14.25 25.477 14.25 25.477 14.25z" fill="#b560e8"/><circle cx="64" cy="84.041" fill="#954acd" r="6"/></g></svg>