<svg height="512" viewBox="0 0 128 128" width="512" xmlns="http://www.w3.org/2000/svg"><g><circle cx="64" cy="64" fill="#dfdfe5" r="57.5"/><circle cx="64" cy="64" fill="#efeffb" r="48.5"/><path d="m89.141 31.5a1.735 1.735 0 0 1 -1.036-.341 41 41 0 0 0 -6.98-4.138 1.75 1.75 0 1 1 1.475-3.169 44.4 44.4 0 0 1 7.579 4.493 1.75 1.75 0 0 1 -1.038 3.155z" fill="#dfdfe5"/><path d="m82.28 47.78c-8.92 0-15.15 6.86-18.28 11.34-3.13-4.48-9.36-11.34-18.28-11.34a16.22 16.22 0 0 0 0 32.44c8.92 0 15.15-6.86 18.28-11.34 3.13 4.48 9.36 11.34 18.28 11.34a16.22 16.22 0 0 0 0-32.44zm-36.56 23.44a7.22 7.22 0 0 1 0-14.44c4.78 0 8.69 4.4 10.71 7.22-2.02 2.82-5.93 7.22-10.71 7.22zm36.56 0c-4.78 0-8.69-4.4-10.71-7.22 2.02-2.82 5.93-7.22 10.71-7.22a7.22 7.22 0 0 1 0 14.44z" fill="#b560e8"/></g></svg>