<svg height="512" viewBox="0 0 128 128" width="512" xmlns="http://www.w3.org/2000/svg"><g><path d="m89.333 10.5c-23 8.667-28 34.833-29.5 43.833 20 0 33.83-13.333 29.5-43.833z" fill="#a5cc2a"/><path d="m38.667 10.5c23 8.667 28 34.833 29.5 43.833-20 0-33.83-13.333-29.5-43.833z" fill="#a5cc2a"/><path d="m77 34.5c0 15.464-13 28-13 28s-13-12.536-13-28 13-28 13-28 13 12.536 13 28z" fill="#bae543"/><path d="m67.76 23.746a1.749 1.749 0 0 1 -1.569-.971 41.013 41.013 0 0 0 -2.069-3.659 1.75 1.75 0 1 1 2.956-1.873 44.113 44.113 0 0 1 2.247 3.974 1.75 1.75 0 0 1 -1.565 2.529z" fill="#a5cc2a"/><path d="m92.3 42.585h-56.6l-8.14 20.27a45.433 45.433 0 0 0 0 34.316l8.14 20.269h56.6l8.14-20.269a45.433 45.433 0 0 0 0-34.316z" fill="#d78759"/><rect fill="#f4a86c" height="9" rx="4.5" width="67.334" x="30.333" y="38.085"/><g fill="#efeffb"><path d="m101.89 67h-75.78c.42-1.4.9-2.78 1.45-4.15l.74-1.85h71.4l.74 1.85c.55 1.37 1.03 2.75 1.45 4.15z"/><path d="m102.14 92.12a45.408 45.408 0 0 1 -1.7 5.05l-.38.95h-72.12l-.38-.95a45.408 45.408 0 0 1 -1.7-5.05z"/><g><circle cx="35.25" cy="79.56" r="3"/><circle cx="54.417" cy="79.56" r="3"/><circle cx="73.583" cy="79.56" r="3"/><circle cx="92.75" cy="79.56" r="3"/></g><g><path d="m41.283 121.822a1.748 1.748 0 0 1 -1.238-.512l-7.572-7.573a1.748 1.748 0 0 1 0-2.474l7.572-7.573a1.751 1.751 0 0 1 2.475 0l7.572 7.573a1.748 1.748 0 0 1 0 2.474l-7.572 7.573a1.748 1.748 0 0 1 -1.237.512zm-5.1-9.322 5.1 5.1 5.1-5.1-5.1-5.1z"/><path d="m56.428 121.822a1.748 1.748 0 0 1 -1.238-.512l-7.572-7.573a1.748 1.748 0 0 1 0-2.474l7.572-7.573a1.751 1.751 0 0 1 2.475 0l7.572 7.573a1.748 1.748 0 0 1 0 2.474l-7.572 7.573a1.748 1.748 0 0 1 -1.237.512zm-5.1-9.322 5.1 5.1 5.1-5.1-5.1-5.1z"/><path d="m71.572 121.822a1.748 1.748 0 0 1 -1.237-.512l-7.572-7.573a1.748 1.748 0 0 1 0-2.474l7.572-7.573a1.751 1.751 0 0 1 2.475 0l7.572 7.573a1.748 1.748 0 0 1 0 2.474l-7.572 7.573a1.748 1.748 0 0 1 -1.238.512zm-5.1-9.322 5.1 5.1 5.1-5.1-5.1-5.1z"/><path d="m86.717 121.822a1.748 1.748 0 0 1 -1.237-.512l-7.572-7.573a1.748 1.748 0 0 1 0-2.474l7.572-7.573a1.751 1.751 0 0 1 2.475 0l7.572 7.573a1.748 1.748 0 0 1 0 2.474l-7.572 7.573a1.748 1.748 0 0 1 -1.238.512zm-5.1-9.322 5.1 5.1 5.1-5.1-5.1-5.1z"/></g></g><path d="m29.75 121.5 3.963-9h60.574l3.963 9z" fill="#f4a86c"/></g></svg>