<?xml version="1.0"?>
<svg xmlns="http://www.w3.org/2000/svg" width="512" height="512" viewBox="0 0 128 128"><g><path d="M114.3,105.5c-20.817,7.825-35.111-6.438-31.757-14.12C90.6,85.79,114.734,88.612,114.3,105.5Z" fill="#bae543"/><path d="M13.7,105.5c20.817,7.825,35.111-6.438,31.757-14.12C37.4,85.79,13.266,88.612,13.7,105.5Z" fill="#bae543"/><path d="M98.544,116.254c-21.8,4.377-33.619-12-29.074-19.04C78.323,92.992,101.689,99.657,98.544,116.254Z" fill="#a5cc2a"/><path d="M29.456,116.254c21.8,4.377,33.619-12,29.074-19.04C49.677,92.992,26.311,99.657,29.456,116.254Z" fill="#a5cc2a"/><path d="M64,121.5c-22.88-8.437-12.288-24.346,0-26.294C76.288,97.154,86.88,113.063,64,121.5Z" fill="#bae543"/><path d="M121.5,25.833s-13.917-.762-25.75,14.238C80.875,58.25,64,103.808,64,103.808c23,0,55.208-10.262,55.719-42.9S121.5,25.833,121.5,25.833Z" fill="#f7502f"/><path d="M70.521,35.25c4.075-19.167,32.416-24.083,32.416-24.083C101.169,25,113.884,54.333,98.56,76.667S64,103.808,64,103.808,66.154,55.154,70.521,35.25Z" fill="#d93922"/><path d="M6.5,25.833s13.917-.762,25.75,14.238C47.125,58.25,64,103.808,64,103.808c-23,0-55.208-10.262-55.719-42.9S6.5,25.833,6.5,25.833Z" fill="#f7502f"/><path d="M57.479,35.25C53.4,16.083,25.063,11.167,25.063,11.167,26.831,25,14.116,54.333,29.44,76.667S64,103.808,64,103.808,61.846,55.154,57.479,35.25Z" fill="#d93922"/><path d="M64,103.808S44.1,82.025,44.1,55.154,64,6.5,64,6.5,83.9,28.283,83.9,55.154,64,103.808,64,103.808Z" fill="#f7502f"/><path d="M73.735,36.027a1.749,1.749,0,0,1-1.632-1.12c-.676-1.748-1.442-3.523-2.278-5.275a1.75,1.75,0,1,1,3.158-1.507c.875,1.832,1.677,3.69,2.384,5.521a1.751,1.751,0,0,1-1.632,2.381Z" fill="#d93922"/></g></svg>
