<svg height="512" viewBox="0 0 128 128" width="512" xmlns="http://www.w3.org/2000/svg"><g><path d="m112.654 54.33c0 17.92-10.542 67.17-48.654 67.17s-48.654-49.25-48.654-67.17 10.272-47.83 48.654-47.83 48.654 29.92 48.654 47.83z" fill="#3ba9fd"/><path d="m99.814 88.1a1.751 1.751 0 0 1 -1.622-2.407c.971-2.4 1.868-4.96 2.664-7.606a1.75 1.75 0 0 1 3.352 1.01c-.828 2.748-1.76 5.409-2.771 7.909a1.75 1.75 0 0 1 -1.623 1.094z" fill="#0e8bce"/><path d="m72.466 65.15c-4.923-13.905 19.343-18.85 26.734-15.759.124 12.609-21.392 30.844-26.734 15.759z" fill="#efeffb"/><path d="m55.534 65.15c4.923-13.905-19.343-18.85-26.729-15.759-.129 12.609 21.387 30.844 26.729 15.759z" fill="#efeffb"/><path d="m79.8 97.023a19.39 19.39 0 0 1 -31.6 0c5.26.14 8.28-3.84 15.8-3.84s10.54 3.98 15.8 3.84z" fill="#f7502f"/><path d="m79.544 98.772a17.347 17.347 0 0 1 -6.95-1.786 20.467 20.467 0 0 0 -8.594-2.052 20.467 20.467 0 0 0 -8.594 2.052c-3.306 1.385-6.726 2.814-12.116.747a10.394 10.394 0 0 1 -6.839-11.733 1.75 1.75 0 0 1 3.433.685 6.866 6.866 0 0 0 4.659 7.778c4.082 1.565 6.359.611 9.512-.708a22.441 22.441 0 0 1 19.89 0c3.153 1.32 5.431 2.273 9.512.708a6.867 6.867 0 0 0 4.659-7.779 1.75 1.75 0 0 1 3.433-.684 10.394 10.394 0 0 1 -6.839 11.73 14.268 14.268 0 0 1 -5.166 1.042z" fill="#0e8bce"/><g fill="#f7502f"><circle cx="64" cy="23.833" r="6"/><circle cx="85.504" cy="29.833" r="4.5"/><circle cx="42.496" cy="29.833" r="4.5"/></g></g></svg>