<svg height="512" viewBox="0 0 128 128" width="512" xmlns="http://www.w3.org/2000/svg"><g><path d="m86.25 39.625v21.594a7.008 7.008 0 0 1 -7 7h-30.5a7.008 7.008 0 0 1 -7-7v-21.594h-6v21.594a13.015 13.015 0 0 0 13 13h30.5a13.015 13.015 0 0 0 13-13v-21.594z" fill="#d93922"/><path d="m111.5 39.625v30.5a17.019 17.019 0 0 1 -17 17h-61a17.019 17.019 0 0 1 -17-17v-30.5h-6v30.5a23.026 23.026 0 0 0 23 23h61a23.026 23.026 0 0 0 23-23v-30.5z" fill="#d93922"/><path d="m61 32.125h6v73.375h-6z" fill="#f7502f"/><path d="m44.096 103.5h39.808v12.562h-39.808z" fill="#d93922"/><path d="m29.75 121.5 3.963-9h60.574l3.963 9z" fill="#f7502f"/><path d="m70 17.69a6 6 0 0 1 -12 0c0-4.75 6-11.19 6-11.19s6 6.44 6 11.19z" fill="#ffd203"/><path d="m120.5 17.69a6 6 0 0 1 -12 0c0-4.75 6-11.19 6-11.19s6 6.44 6 11.19z" fill="#ffd203"/><g fill="#f09418"><path d="m71 33.875h-14a1.75 1.75 0 0 1 0-3.5h14a1.75 1.75 0 0 1 0 3.5z"/><path d="m121.5 33.875h-14a1.75 1.75 0 0 1 0-3.5h14a1.75 1.75 0 0 1 0 3.5z"/><path d="m59.5 32.125h9v15h-9z"/><path d="m96.25 33.875h-14a1.75 1.75 0 0 1 0-3.5h14a1.75 1.75 0 0 1 0 3.5z"/></g><path d="m95.25 17.69a6 6 0 0 1 -12 0c0-4.75 6-11.19 6-11.19s6 6.44 6 11.19z" fill="#ffd203"/><path d="m84.745 32.12h9v15h-9z" fill="#f09418"/><path d="m110 32.12h9v15h-9z" fill="#f09418"/><path d="m7.5 17.69a6 6 0 0 0 12 0c0-4.75-6-11.19-6-11.19s-6 6.44-6 11.19z" fill="#ffd203"/><path d="m20.5 33.875h-14a1.75 1.75 0 0 1 0-3.5h14a1.75 1.75 0 0 1 0 3.5z" fill="#f09418"/><path d="m45.75 33.875h-14a1.75 1.75 0 0 1 0-3.5h14a1.75 1.75 0 0 1 0 3.5z" fill="#f09418"/><path d="m32.75 17.69a6 6 0 0 0 12 0c0-4.75-6-11.19-6-11.19s-6 6.44-6 11.19z" fill="#ffd203"/><path d="m34.255 32.12h9v15h-9z" fill="#f09418"/><path d="m9 32.12h9v15h-9z" fill="#f09418"/></g></svg>