<?xml version="1.0"?>
<svg xmlns="http://www.w3.org/2000/svg" width="512" height="512" viewBox="0 0 128 128"><g><path d="M96.614,115.756A18.958,18.958,0,0,0,68.5,105.373V91.7H83.9a4.5,4.5,0,0,0,0-9H68.5V68.077a24.4,24.4,0,1,0-9,0V82.7H44.1a4.5,4.5,0,1,0,0,9H59.5v13.677a18.958,18.958,0,0,0-28.114,10.383,4.394,4.394,0,0,0,4.169,5.744h.25a4.476,4.476,0,0,0,4.206-3.16A10,10,0,0,1,59.5,121.5h9a10,10,0,0,1,19.489-3.16A4.476,4.476,0,0,0,92.2,121.5h.25A4.394,4.394,0,0,0,96.614,115.756ZM64,59.5A15.405,15.405,0,1,1,79.4,44.1,15.419,15.419,0,0,1,64,59.5Z" fill="#f09418"/><path d="M95.78,16.82A31.781,31.781,0,1,1,32.967,9.943,4.436,4.436,0,0,1,37.311,6.5h.1a4.443,4.443,0,0,1,4.351,5.387,22.78,22.78,0,1,0,44.511.123A4.485,4.485,0,0,1,90.6,6.5h.086a4.465,4.465,0,0,1,4.362,3.505A31.764,31.764,0,0,1,95.78,16.82Z" fill="#ffd203"/></g></svg>
