<svg height="512" viewBox="0 0 128 128" width="512" xmlns="http://www.w3.org/2000/svg"><g><g fill="#f09418"><path d="m77.64 44.99c-2.55-6.29-.69-7.04-3.23-13.33s-4.4-5.54-6.94-11.84-.69-7.04-3.23-13.32c-1.99 6.48-3.94 6.01-5.94 12.49s-.043 6.96-2.043 13.45-3.9 5.9-5.9 12.38z"/><path d="m50.36 83.18c2 6.48 3.91 5.9 5.9 12.38s.053 6.96 2.043 13.45 3.947 6.01 5.937 12.49c2.54-6.28.69-7.03 3.23-13.32s4.39-5.55 6.94-11.84.68-7.04 3.23-13.33z"/><path d="m87.087 60.2c2.645-6.251 4.49-5.466 7.142-11.71s.806-7.028 3.465-13.279 4.49-5.466 7.134-11.7c-5.989 3.175-7.034 1.466-13.03 4.633-6 3.182-4.951 4.892-10.955 8.067s-6.929 1.414-12.926 4.582z"/><path d="m40.793 67.917c-3.168 6-1.407 6.937-4.582 12.926s-4.885 4.957-8.067 10.957c-3.167 6-1.458 7.041-4.633 13.03 6.237-2.644 5.459-4.483 11.7-7.134s7.028-.821 13.279-3.465 5.459-4.5 11.71-7.142z"/><path d="m83.01 77.64c6.29-2.55 7.04-.69 13.33-3.23s5.54-4.4 11.84-6.94 7.04-.69 13.32-3.23c-6.48-1.99-6.01-3.937-12.49-5.937s-6.96-.043-13.45-2.043-5.9-3.9-12.38-5.9z"/><path d="m44.82 50.36c-6.48 2-5.9 3.91-12.38 5.9s-6.96.053-13.45 2.043-6.01 3.947-12.49 5.937c6.28 2.54 7.03.69 13.32 3.23s5.55 4.39 11.84 6.94 7.04.68 13.33 3.23z"/><path d="m67.8 87.087c6.251 2.645 5.466 4.49 11.71 7.142s7.028.806 13.279 3.465 5.466 4.49 11.7 7.134c-3.175-5.989-1.466-7.034-4.633-13.03s-4.892-4.951-8.067-10.955-1.414-6.929-4.582-12.926z"/><path d="m60.083 40.793c-6-3.168-6.937-1.407-12.926-4.582s-4.957-4.885-10.957-8.067c-6-3.167-7.041-1.458-13.03-4.633 2.644 6.237 4.483 5.459 7.134 11.7s.821 7.028 3.465 13.279 4.5 5.459 7.142 11.71z"/></g><circle cx="64" cy="64" fill="#ffd203" r="28.75"/><path d="m76.115 85a1.75 1.75 0 0 1 -.936-3.23 21.147 21.147 0 0 0 4.345-3.644 1.75 1.75 0 0 1 2.588 2.357 24.663 24.663 0 0 1 -5.064 4.246 1.743 1.743 0 0 1 -.933.271z" fill="#f09418"/></g></svg>