<svg height="512" viewBox="0 0 128 128" width="512" xmlns="http://www.w3.org/2000/svg"><g><path d="m81.14 15.34c-1.16-3.41-5.23-5.57-5.23-5.57-10.53-5.59-20.94-2.92-26.58 3.31a21.376 21.376 0 0 1 -4.66 3.05 35.441 35.441 0 0 1 -3.98 1.69.031.031 0 0 1 -.02.01 54.442 54.442 0 1 0 40.47-2.49zm-17.14 97.16a45.448 45.448 0 0 1 -19.65-86.43c7.02-3.55 28.94 4.45 36.19-1.36a45.454 45.454 0 0 1 -16.54 87.79z" fill="#bae543"/><g fill="#a5cc2a"><circle cx="65.667" cy="9.5" r="3"/><path d="m80.543 26.46a1.743 1.743 0 0 1 -.615-.112c-2.089-.785-9.026-3.57-10.591-6.45a1.751 1.751 0 0 1 .3-2.073c2.055-2.055 5.616-2.789 11.892-2.457a1.75 1.75 0 0 1 1.655 1.84 1.782 1.782 0 0 1 -1.84 1.655 22.212 22.212 0 0 0 -7.65.538 39.432 39.432 0 0 0 7.463 3.671 1.75 1.75 0 0 1 -.615 3.388z"/></g></g></svg>