<svg height="512" viewBox="0 0 128 128" width="512" xmlns="http://www.w3.org/2000/svg"><g><path d="m46.125 66.625a1.751 1.751 0 0 1 -1.75-1.75v-34.055a13.188 13.188 0 1 1 26.375 0v6.152a9.688 9.688 0 0 0 19.375 0v-29.597a1.75 1.75 0 0 1 3.5 0v29.6a13.188 13.188 0 0 1 -26.375 0v-6.155a9.688 9.688 0 1 0 -19.375 0v34.055a1.751 1.751 0 0 1 -1.75 1.75z" fill="#f09418"/><path d="m43.125 51.042h6v18.833h-6z" fill="#f09418"/><rect fill="#ffd203" height="12" rx="6" width="12" x="40.125" y="43.479"/><path d="m52.125 75.149v-7.666h-12v7.666l-5.75 12 11.75 35.226 11.75-35.226z" fill="#ffd203"/><path d="m46.465 104.146a1.753 1.753 0 0 1 -1.66-2.305l2.1-6.291a1.75 1.75 0 0 1 3.32 1.108l-2.1 6.291a1.751 1.751 0 0 1 -1.66 1.197z" fill="#f09418"/><path d="m57.875 87.145h-23.5l5.75-12h12z" fill="#f09418"/><path d="m36.125 66.814h20v9h-20z" fill="#ffd203"/></g></svg>