<svg height="512" viewBox="0 0 128 128" width="512" xmlns="http://www.w3.org/2000/svg"><g><path d="m103.06 79.01a63.345 63.345 0 0 0 -11.44 1.91 62.954 62.954 0 0 0 8.17 2.27 41.989 41.989 0 0 1 -3.12 3.14c-19.34 17.48-78.02 18.31-78.02 18.31 2.06-23.34 9.8-43.42 30.17-57.52a58.228 58.228 0 0 0 -.15 9.55 70.71 70.71 0 0 0 5.96-13.22 105.424 105.424 0 0 1 19.74-8.6c5.61-1.83 10.58-3.71 14.97-5.58.99 6.88 3.84 10.23 3.84 10.23a65.223 65.223 0 0 0 5.98-14.88h.01c17.81-9.38 22.07-17.59 22.32-18.1-2.24 39.73-5.81 54.18-18.43 72.49z" fill="#efeffb"/><path d="m110.342 51.022a1.786 1.786 0 0 1 -.432-.053 1.75 1.75 0 0 1 -1.265-2.127c.589-2.324 1.108-4.743 1.585-7.4a1.751 1.751 0 0 1 3.446.621c-.493 2.734-1.03 5.231-1.639 7.636a1.75 1.75 0 0 1 -1.695 1.323z" fill="#dfdfe5"/><path d="m78.422 58.765a2.994 2.994 0 0 0 -4.2-.652c-4.75 3.484-9.585 6.893-14.365 10.26-21.483 15.133-41.83 29.466-52.923 48.495a3.1 3.1 0 0 0 .909 4.155 2.989 2.989 0 0 0 4.205-1.013c10.428-17.966 30.29-31.958 51.264-46.733 4.81-3.388 9.673-6.817 14.462-10.329a3.006 3.006 0 0 0 .648-4.183z" fill="#b560e8"/><path d="m89.448 123.25h-79.615a1.75 1.75 0 1 1 0-3.5h79.615a1.75 1.75 0 0 1 0 3.5z" fill="#954acd"/></g></svg>