<svg height="512" viewBox="0 0 128 128" width="512" xmlns="http://www.w3.org/2000/svg"><g><path d="m6.5 41.048 1.88 10.9a25.961 25.961 0 0 0 25.59 21.56h23.03v-27.508h-2.97a18.633 18.633 0 0 1 -9.28-2.475 18.643 18.643 0 0 0 -9.28-2.475z" fill="#d93922"/><path d="m121.5 41.05-1.88 10.9a25.961 25.961 0 0 1 -25.59 21.56h-23.03v-27.51h2.97a18.636 18.636 0 0 0 9.28-2.48 18.627 18.627 0 0 1 9.28-2.47z" fill="#d93922"/><path d="m106.8 41.05-.18 1.04a25.961 25.961 0 0 1 -25.59 21.56h-10.03v-17.65h2.97a18.636 18.636 0 0 0 9.28-2.48 18.627 18.627 0 0 1 9.28-2.47z" fill="#f7502f"/><path d="m21.2 41.05.18 1.04a25.961 25.961 0 0 0 25.59 21.56h10.03v-17.65h-2.97a18.636 18.636 0 0 1 -9.28-2.48 18.627 18.627 0 0 0 -9.28-2.47z" fill="#f7502f"/><g fill="#d93922"><path d="m95.591 123.25a1.752 1.752 0 0 1 -1.717-1.418l-2.51-13.016a4.263 4.263 0 0 0 -.865-1.864l-3.812-4.723a7.807 7.807 0 0 1 -1.578-3.4l-1.43-7.418a4.244 4.244 0 0 0 -2.895-3.248l-8.112-2.559a1.75 1.75 0 1 1 1.053-3.337l8.112 2.558a7.742 7.742 0 0 1 5.279 5.924l1.431 7.417a4.258 4.258 0 0 0 .865 1.864l3.812 4.723a7.785 7.785 0 0 1 1.577 3.4l2.511 13.016a1.751 1.751 0 0 1 -1.388 2.05 1.722 1.722 0 0 1 -.333.031z"/><path d="m66 20.917a1.75 1.75 0 0 1 -.783-3.316c.219-.113 5.606-3 5.037-10.976a1.749 1.749 0 1 1 3.49-.25c.742 10.381-6.647 14.2-6.963 14.357a1.746 1.746 0 0 1 -.781.185z"/><path d="m32.409 123.25a1.722 1.722 0 0 1 -.333-.032 1.75 1.75 0 0 1 -1.387-2.05l2.51-13.015a7.769 7.769 0 0 1 1.578-3.4l3.811-4.724a4.271 4.271 0 0 0 .866-1.864l1.43-7.418a7.741 7.741 0 0 1 5.279-5.923l8.112-2.558a1.75 1.75 0 0 1 1.053 3.337l-8.112 2.559a4.244 4.244 0 0 0 -2.9 3.248l-1.426 7.421a7.787 7.787 0 0 1 -1.578 3.4l-3.812 4.721a4.275 4.275 0 0 0 -.865 1.863l-2.511 13.017a1.75 1.75 0 0 1 -1.715 1.418z"/><path d="m70.75 46.724a1.751 1.751 0 0 1 -.526-3.42l2.224-.7a9.2 9.2 0 0 0 6.275-7.041 12.765 12.765 0 0 1 2.589-5.576l.745-.922a9.258 9.258 0 0 0 1.875-4.041l1.532-7.945a1.75 1.75 0 0 1 3.437.663l-1.532 7.946a12.76 12.76 0 0 1 -2.589 5.575l-.745.922a9.253 9.253 0 0 0 -1.875 4.04 12.7 12.7 0 0 1 -8.66 9.716l-2.225.7a1.753 1.753 0 0 1 -.525.083z"/><path d="m57.25 46.724a1.753 1.753 0 0 1 -.526-.082l-2.224-.7a12.7 12.7 0 0 1 -8.66-9.717 9.244 9.244 0 0 0 -1.876-4.04l-.744-.922a12.759 12.759 0 0 1 -2.588-5.575l-1.532-7.947a1.75 1.75 0 1 1 3.437-.663l1.532 7.945a9.254 9.254 0 0 0 1.876 4.041l.744.922a12.766 12.766 0 0 1 2.589 5.575 9.205 9.205 0 0 0 6.274 7.039l2.224.7a1.751 1.751 0 0 1 -.526 3.42z"/><path d="m62 20.917a1.756 1.756 0 0 1 -.782-.185c-.315-.158-7.7-3.976-6.963-14.357a1.75 1.75 0 0 1 3.492.25c-.578 8.075 4.98 10.948 5.036 10.975a1.751 1.751 0 0 1 -.783 3.317z"/></g><circle cx="64" cy="22.844" fill="#ffd203" r="6"/><path d="m78.625 43.167c0 6.2-6.548 11.218-14.625 11.218s-14.625-5.022-14.625-11.218 2.375-20.323 14.625-20.323 14.625 14.127 14.625 20.323z" fill="#f7502f"/><path d="m54.8 93.42c0-3.9 4.119-7.056 9.2-7.056s9.2 3.159 9.2 7.056-1.495 12.78-9.2 12.78-9.2-8.883-9.2-12.78z" fill="#f09418"/><path d="m81.722 46.721v34.808a17.721 17.721 0 0 1 -11.144 16.455 17.722 17.722 0 0 1 -13.156 0 17.721 17.721 0 0 1 -11.144-16.455v-34.808a12 12 0 0 1 12-12h11.444a12 12 0 0 1 12 12z" fill="#ffd203"/><path d="m75.722 82.77a1.75 1.75 0 0 1 -1.75-1.75v-7a1.75 1.75 0 0 1 3.5 0v7a1.751 1.751 0 0 1 -1.75 1.75z" fill="#f09418"/><path d="m64 101a1.75 1.75 0 0 1 -1.75-1.75v-39.095a13.789 13.789 0 0 1 8-12.488l10.52-4.847a1.75 1.75 0 1 1 1.46 3.18l-10.519 4.846a10.279 10.279 0 0 0 -5.961 9.309v39.1a1.75 1.75 0 0 1 -1.75 1.745z" fill="#f09418"/><path d="m64 101a1.75 1.75 0 0 1 -1.75-1.75v-39.095a10.279 10.279 0 0 0 -5.96-9.309l-10.521-4.846a1.75 1.75 0 0 1 1.465-3.179l10.52 4.847a13.789 13.789 0 0 1 8 12.488v39.1a1.75 1.75 0 0 1 -1.754 1.744z" fill="#f09418"/><g fill="#ffd203"><circle cx="91.439" cy="67.842" r="1.748"/><circle cx="101.812" cy="64.579" r="1.748"/><circle cx="109.605" cy="56.999" r="1.748"/><circle cx="113.149" cy="46.714" r="1.748"/></g><g fill="#ffd203"><circle cx="36.561" cy="67.842" r="1.748"/><circle cx="26.188" cy="64.579" r="1.748"/><circle cx="18.395" cy="56.999" r="1.748"/><circle cx="14.851" cy="46.714" r="1.748"/></g></g></svg>