<svg height="512" viewBox="0 0 128 128" width="512" xmlns="http://www.w3.org/2000/svg"><g><g fill="#a5cc2a"><path d="m68.5 37.56v33.77h-9v-33.77l4.5-9z"/><path d="m102.22 105h-5.39l-35.55-26.99 5.44-7.17 29.7 22.55z"/><path d="m25.78 105h5.39l35.55-26.99-5.44-7.17-29.7 22.55z"/></g><path d="m64 8.44-52.78 105.56h105.56zm-4.5 29.12 4.5-9 4.5 9 33.72 67.44h-76.44z" fill="#bae543"/><circle cx="64" cy="18.5" fill="#3ba9fd" r="12"/><path d="m69.756 18.556a1.751 1.751 0 0 1 -1.678-1.256 4.263 4.263 0 0 0 -2.7-2.822 1.75 1.75 0 0 1 1.137-3.311 7.768 7.768 0 0 1 4.923 5.143 1.752 1.752 0 0 1 -1.68 2.245z" fill="#0e8bce"/><circle cx="18.5" cy="109.5" fill="#3ba9fd" r="12"/><circle cx="64" cy="74.423" fill="#3ba9fd" r="12"/><circle cx="109.5" cy="109.5" fill="#3ba9fd" r="12"/></g></svg>