<svg height="512" viewBox="0 0 128 128" width="512" xmlns="http://www.w3.org/2000/svg"><g><path d="m24.192 53.392a9 9 0 0 0 9 9h9.808l-3.43 49.144a9.316 9.316 0 0 0 9.293 9.964 9.315 9.315 0 0 0 9.211-7.921l2.477-16.363a3.488 3.488 0 0 1 3.449-2.966 3.488 3.488 0 0 1 3.449 2.966l2.477 16.363a9.315 9.315 0 0 0 9.211 7.921 9.316 9.316 0 0 0 9.293-9.964l-3.43-49.144h9.808a9 9 0 0 0 9-9 9 9 0 0 0 -9-9h-61.616a9 9 0 0 0 -9 9z" fill="#d78759"/><path d="m47.153 90.838c-.041 0-.082 0-.124 0a1.749 1.749 0 0 1 -1.623-1.868l.507-7.267a1.75 1.75 0 1 1 3.491.244l-.504 7.263a1.749 1.749 0 0 1 -1.747 1.628z" fill="#f4a86c"/><path d="m96.24 88.942a1.751 1.751 0 0 1 -.512-.076l-18.471-5.648a1.751 1.751 0 0 1 1.024-3.348l18.47 5.649a1.75 1.75 0 0 1 -.511 3.423z" fill="#d93922"/><circle cx="96.24" cy="87.192" fill="#f7502f" r="3"/><path d="m54.319 65.75a1.749 1.749 0 0 1 -1.417-.721l-8.331-11.461a1.75 1.75 0 0 1 2.829-2.058l8.331 11.461a1.75 1.75 0 0 1 -1.414 2.779z" fill="#d93922"/><circle cx="45.986" cy="52.539" fill="#f7502f" r="3"/><path d="m83.9 51.215a1.75 1.75 0 0 1 -1.448-2.73l8.8-13.039a1.75 1.75 0 0 1 2.9 1.959l-8.8 13.039a1.748 1.748 0 0 1 -1.452.771z" fill="#d93922"/><circle cx="92.708" cy="36.426" fill="#f7502f" r="3"/><g fill="#f4a86c"><path d="m64 96a1.75 1.75 0 0 1 -1.75-1.75v-47.942a1.75 1.75 0 1 1 3.5 0v47.942a1.75 1.75 0 0 1 -1.75 1.75z"/><path d="m67 90h-6a1.75 1.75 0 0 1 0-3.5h6a1.75 1.75 0 0 1 0 3.5z"/><path d="m67 84h-6a1.75 1.75 0 0 1 0-3.5h6a1.75 1.75 0 0 1 0 3.5z"/><path d="m67 78h-6a1.75 1.75 0 0 1 0-3.5h6a1.75 1.75 0 0 1 0 3.5z"/><path d="m67 72h-6a1.75 1.75 0 0 1 0-3.5h6a1.75 1.75 0 0 1 0 3.5z"/><path d="m67 66h-6a1.75 1.75 0 0 1 0-3.5h6a1.75 1.75 0 0 1 0 3.5z"/><path d="m67 60h-6a1.75 1.75 0 0 1 0-3.5h6a1.75 1.75 0 0 1 0 3.5z"/><path d="m67 54h-6a1.75 1.75 0 0 1 0-3.5h6a1.75 1.75 0 0 1 0 3.5z"/><circle cx="64" cy="26.404" r="19.904"/></g></g></svg>