<svg height="512" viewBox="0 0 128 128" width="512" xmlns="http://www.w3.org/2000/svg"><g><path d="m87.817 6.5h-47.634l-33.683 33.683v47.634l33.683 33.683h47.634l33.683-33.683v-47.634z" fill="#efeffb"/><path d="m80.814 14.25h-7.75a1.75 1.75 0 0 1 0-3.5h7.75a1.75 1.75 0 0 1 0 3.5z" fill="#dfdfe5"/><circle cx="64" cy="64" fill="#dfdfe5" r="45.808"/><circle cx="64" cy="64" fill="#0e8bce" r="39.808"/><path d="m103.81 64a39.805 39.805 0 0 1 -39.81 39.81 19.905 19.905 0 0 0 0-39.81 19.905 19.905 0 0 1 0-39.81 39.805 39.805 0 0 1 39.81 39.81z" fill="#3ba9fd"/><g fill="#efeffb"><circle cx="64" cy="44.096" r="6"/><circle cx="64" cy="83.904" r="6"/></g></g></svg>